HIERARCHY
ROOT Hips
{
	OFFSET 0.00000 0.00000 0.00000
	CHANNELS 6 Xposition Yposition Zposition Zrotation Yrotation Xrotation 
	JOINT LHipJoint
	{
		OFFSET 0 0 0
		CHANNELS 3 Zrotation Yrotation Xrotation
		JOINT LeftHip
		{
			OFFSET 1.34019 -1.87553 0.90315
			CHANNELS 3 Zrotation Yrotation Xrotation
			JOINT LeftKnee
			{
				OFFSET 2.55316 -7.01474 0.00000
				CHANNELS 3 Zrotation Yrotation Xrotation
				JOINT LeftAnkle
				{
					OFFSET 2.64657 -7.27139 0.00000
					CHANNELS 3 Zrotation Yrotation Xrotation
					JOINT LeftToe
					{
						OFFSET 0.24207 -0.66507 2.14489
						CHANNELS 3 Zrotation Yrotation Xrotation
						End Site
						{
							OFFSET 0.00000 -0.00000 1.12451
						}
					}
				}
			}
		}
	}
	JOINT RHipJoint
	{
		OFFSET 0 0 0
		CHANNELS 3 Zrotation Yrotation Xrotation
		JOINT RightHip
		{
			OFFSET -1.28320 -1.87553 0.90315
			CHANNELS 3 Zrotation Yrotation Xrotation
			JOINT RightKnee
			{
				OFFSET -2.60484 -7.15674 0.00000
				CHANNELS 3 Zrotation Yrotation Xrotation
				JOINT RightAnkle
				{
					OFFSET -2.60296 -7.15159 0.00000
					CHANNELS 3 Zrotation Yrotation Xrotation
					JOINT RightToe
					{
						OFFSET -0.31082 -0.85398 2.28998
						CHANNELS 3 Zrotation Yrotation Xrotation
						End Site
						{
							OFFSET -0.00000 -0.00000 1.21611
						}
					}
				}
			}
		}
	}
	JOINT lowerback
	{
		OFFSET 0 0 0
		CHANNELS 3 Zrotation Yrotation Xrotation
		JOINT Chest
		{
			OFFSET -0.00160 2.05581 -0.15156
			CHANNELS 3 Zrotation Yrotation Xrotation
			JOINT Chest2
			{
				OFFSET 0.04594 2.06326 -0.01617
				CHANNELS 3 Zrotation Yrotation Xrotation
				JOINT lowerneck
				{
					OFFSET 0 0 0
					CHANNELS 3 Zrotation Yrotation Xrotation
					JOINT Neck
					{
						OFFSET 0.03753 1.73883 0.26751
						CHANNELS 3 Zrotation Yrotation Xrotation
						JOINT Head
						{
							OFFSET -0.09795 1.76129 -0.31794
							CHANNELS 3 Zrotation Yrotation Xrotation
							End Site
							{
								OFFSET -0.03611 1.79987 -0.13846
							}
						}
					}
				}
				JOINT LeftCollar
				{
					OFFSET 0 0 0
					CHANNELS 3 Zrotation Yrotation Xrotation
					JOINT LeftShoulder
					{
						OFFSET 3.30667 1.29205 -0.22445
CHANNELS 3 Zrotation Xrotation Yrotation
						JOINT LeftElbow
						{
OFFSET 0 -4.927850 -0.000000
CHANNELS 3 Zrotation Xrotation Yrotation
							JOINT LeftWrist
							{
OFFSET 0 -3.440520 0.000000
CHANNELS 3 Zrotation Xrotation Yrotation
								JOINT lhand
								{
									OFFSET 0 0 0
CHANNELS 3 Zrotation Xrotation Yrotation
									JOINT LFingers
									{
OFFSET 0 -0.654330 0.000000
CHANNELS 3 Zrotation Xrotation Yrotation
										End Site
										{
OFFSET 0 -0.527530 0.000000
										}
									}
								}
								JOINT LThumb
								{
OFFSET 0 0.000000 0.000000
CHANNELS 3 Zrotation Xrotation Yrotation
									End Site
									{
OFFSET 0 -0.535590 0.535590
									}
								}
							}
						}
					}
				}
				JOINT RightCollar
				{
					OFFSET 0 0 0
					CHANNELS 3 Zrotation Yrotation Xrotation
					JOINT RightShoulder
					{
						OFFSET -3.20032 1.49783 -0.27688
CHANNELS 3 Zrotation Xrotation Yrotation
						JOINT RightElbow
						{
OFFSET 0 -5.091810 -0.000000
CHANNELS 3 Zrotation Xrotation Yrotation
							JOINT RightWrist
							{
OFFSET 0 -3.498650 -0.000000
CHANNELS 3 Zrotation Xrotation Yrotation
								JOINT rhand
								{
									OFFSET 0 0 0
CHANNELS 3 Zrotation Xrotation Yrotation
									JOINT RFingers
									{
OFFSET 0 -0.666410 0.000000
CHANNELS 3 Zrotation Xrotation Yrotation
										End Site
										{
OFFSET 0 -0.537280 0.000000
										}
									}
								}
								JOINT RThumb
								{
OFFSET 0 0.000000 0.000000
CHANNELS 3 Zrotation Xrotation Yrotation
									End Site
									{
OFFSET 0 -0.545480 0.545480
									}
								}
							}
						}
					}
				}
			}
		}
	}
}
MOTION
Frames: 9
Frame Time: 0.008333333333333333
-0.480300 17.960900 -30.800400 -0.552200 34.849000 1.448800 0.000000 0.000000 0.000000 -15.524900 -13.676700 -5.866800 1.856700 8.561000 24.431300 0.435300 -1.450900 -12.043600 0.299700 -3.520000 -9.730000 0.000000 0.000000 0.000000 21.662400 -10.802400 -5.691600 -1.907200 -8.670000 24.768300 1.894800 -28.994400 -29.585700 -0.001200 -0.226400 0.622000 2.918800 6.552100 3.556200 3.398100 8.940100 0.132800 1.410800 4.458800 -1.942100 16.354200 19.220500 -9.090000 -9.787800 27.102000 22.289300 -1.623900 12.876200 12.432700 0.000000 0.000000 0.000000 -1.616800 -4.039500 -20.382500 11.705200 -19.361100 2.003500 14.569100 -4.909300 5.944800 0.000000 0.000000 0.000000 -7.125000 0.000000 0.000000 -8.987500 23.849000 -4.641300 0.000000 0.000000 0.000000 -14.482500 15.382700 -0.374900 -23.677000 -34.820800 -7.521300 -23.318800 -12.213100 2.472000 0.000000 0.000000 0.000000 7.125000 0.000000 -0.000000 2.651700 32.663500 0.801900
-0.477606 17.959835 -30.804148 -0.481439 34.843542 1.469073 0.000000 0.000000 0.000000 -15.638039 -13.799535 -5.777158 1.851390 8.549481 24.395830 0.434152 -1.315858 -12.058517 0.301020 -3.527388 -9.750840 0.000000 0.000000 0.000000 21.577887 -10.804948 -5.687802 -1.912316 -8.681032 24.802455 1.880481 -28.955801 -29.612780 -0.001513 -0.250240 0.687599 2.985229 6.608752 3.603625 3.459643 9.021248 0.160715 1.429860 4.499316 -1.940256 10.294711 19.246444 -8.312565 -5.759052 27.224604 23.025733 0.149481 13.007780 10.977179 0.000000 0.000000 0.000000 -1.849364 -4.341210 -19.166989 11.195376 -18.586973 1.837794 15.511766 -3.351957 6.250642 0.000000 0.000000 0.000000 -7.125000 0.000000 0.000000 -8.278135 23.508237 -4.335497 0.000000 0.000000 0.000000 -14.201279 14.912383 0.019038 -23.829162 -34.983075 -7.608398 -23.703688 -12.023703 1.812108 0.000000 0.000000 0.000000 7.125000 0.000000 0.000000 2.312839 31.953379 0.739012
-0.482412 17.960568 -30.809031 -0.527098 34.941195 1.481744 0.000000 0.000000 0.000000 -15.570025 -13.876422 -5.847960 1.851542 8.549726 24.396561 0.432465 -1.371391 -12.021238 0.298332 -3.511936 -9.707434 0.000000 0.000000 0.000000 21.672821 -10.714951 -5.701554 -1.906588 -8.668850 24.764681 1.896759 -29.070642 -29.737284 -0.002042 -0.292203 0.802851 3.148119 6.711042 3.714450 3.432093 9.174404 0.059186 1.286727 4.571198 -2.078146 10.033179 19.245789 -8.153566 -5.560232 27.208432 22.911868 0.204251 13.018479 10.832930 0.000000 0.000000 0.000000 -1.862356 -4.638686 -17.825533 10.659793 -17.764772 1.670758 17.186207 -1.224406 5.686333 0.000000 0.000000 0.000000 -7.125000 0.000000 0.000000 -7.064114 24.034940 -3.601153 0.000000 0.000000 0.000000 -13.728370 14.582390 0.093957 -23.828710 -34.982572 -7.608141 -24.200636 -11.734951 1.629457 0.000000 0.000000 0.000000 7.125000 0.000000 0.000000 1.907363 31.762586 0.617926
-0.485690 17.961790 -30.817763 -0.579355 35.036572 1.531362 0.000000 0.000000 0.000000 -15.487192 -13.924697 -5.992254 1.853241 8.553509 24.408251 0.430349 -1.464329 -11.969918 0.297297 -3.506034 -9.690993 0.000000 0.000000 0.000000 21.758609 -10.667439 -5.784191 -1.899547 -8.653605 24.717624 1.917113 -29.156352 -29.767467 -0.002313 -0.313910 0.862362 3.285409 6.757087 3.764450 3.470180 9.249246 -0.007573 1.237369 4.605836 -2.160288 9.960694 19.294899 -7.830109 -5.720082 27.277430 22.373668 0.109850 13.063689 10.596487 0.000000 0.000000 0.000000 -1.981972 -5.014648 -16.033303 10.139544 -16.957502 1.515467 18.857763 0.525258 5.535020 0.000000 0.000000 0.000000 -7.125000 0.000000 0.000000 -5.828256 24.136281 -2.950194 0.000000 0.000000 0.000000 -13.405240 14.258711 0.166092 -23.710864 -34.856950 -7.540642 -24.709574 -11.442801 1.538484 0.000000 0.000000 0.000000 7.125000 0.000000 0.000000 1.496463 31.670955 0.488032
-0.486049 17.963870 -30.827549 -0.629937 35.155236 1.592786 0.000000 0.000000 0.000000 -15.408702 -13.961508 -6.156508 1.855603 8.558506 24.423801 0.429616 -1.613320 -11.926545 0.294411 -3.488995 -9.643244 0.000000 0.000000 0.000000 21.823018 -10.691691 -5.875326 -1.885388 -8.623238 24.623691 1.929763 -29.198916 -29.763828 -0.002668 -0.333145 0.915409 3.362294 6.695419 3.735650 3.601513 9.174909 -0.029752 1.334776 4.569265 -2.176932 9.627076 19.396726 -7.628610 -5.818306 27.468027 22.035020 0.102443 13.143956 10.418176 0.000000 0.000000 0.000000 -2.212419 -5.383534 -13.970319 9.705738 -16.277849 1.391342 20.576572 1.196981 5.366203 0.000000 0.000000 0.000000 -7.125000 0.000000 0.000000 -4.552430 24.251923 -2.287762 0.000000 0.000000 0.000000 -13.274978 13.999361 0.361022 -23.513806 -34.645862 -7.428352 -25.506882 -10.772283 1.680137 0.000000 0.000000 0.000000 7.125000 0.000000 0.000000 0.860128 31.840453 0.276990
-0.484526 17.965674 -30.836233 -0.657416 35.323966 1.675246 0.000000 0.000000 0.000000 -15.348361 -13.994869 -6.319571 1.853988 8.555057 24.413162 0.429345 -1.827816 -11.878960 0.287903 -3.450325 -9.535254 0.000000 0.000000 0.000000 21.865489 -10.756223 -5.951375 -1.866019 -8.581227 24.493859 1.922924 -29.208407 -29.836855 -0.003519 -0.382961 1.052297 3.481086 6.676008 3.714803 3.635483 9.157298 -0.085652 1.305734 4.558798 -2.210402 9.265899 19.449740 -7.727087 -5.746012 27.550906 21.904351 0.172379 13.168262 10.328965 0.000000 0.000000 0.000000 -2.200415 -5.664846 -12.247786 9.397808 -15.792120 1.306287 21.903662 1.267804 5.243764 0.000000 0.000000 0.000000 -7.125000 0.000000 0.000000 -3.564205 24.331527 -1.782513 0.000000 0.000000 0.000000 -13.001040 13.831376 0.217591 -23.162513 -34.265913 -7.229601 -26.614454 -9.744027 1.864709 0.000000 0.000000 0.000000 7.125000 0.000000 0.000000 -0.027627 32.065297 -0.008581
-0.483749 17.966451 -30.841586 -0.721199 35.489966 1.731631 0.000000 0.000000 0.000000 -15.239053 -13.980763 -6.473620 1.848932 8.544060 24.379178 0.429500 -2.078536 -11.835066 0.278626 -3.395155 -9.380846 0.000000 0.000000 0.000000 21.961644 -10.751492 -5.962917 -1.842538 -8.530164 24.336354 1.903726 -29.232974 -30.036010 -0.005080 -0.461587 1.268333 3.593918 6.644052 3.683932 3.680448 9.121943 -0.128882 1.294015 4.539932 -2.227934 8.935936 19.519650 -7.984948 -5.620756 27.650264 21.927869 0.283833 13.193785 10.321212 0.000000 0.000000 0.000000 -2.112620 -5.867789 -10.623932 9.233341 -15.531547 1.261857 22.855639 1.451236 5.154263 0.000000 0.000000 0.000000 -7.125000 0.000000 0.000000 -2.853751 24.389537 -1.422434 0.000000 0.000000 0.000000 -12.760344 13.684512 -0.072081 -22.712295 -33.772522 -6.977745 -27.836825 -8.753220 1.941477 0.000000 0.000000 0.000000 7.125000 0.000000 0.000000 -1.012020 32.174014 -0.317789
-0.481740 17.967580 -30.847503 -0.741837 35.631064 1.821077 0.000000 0.000000 0.000000 -15.173794 -13.939178 -6.628440 1.839254 8.522934 24.314128 0.427840 -2.318122 -11.773235 0.270780 -3.347004 -9.246402 0.000000 0.000000 0.000000 22.008800 -10.731877 -5.993122 -1.822207 -8.485361 24.198409 1.885600 -29.250540 -30.210867 -0.006780 -0.533209 1.465223 3.684758 6.622147 3.646091 3.690210 9.097484 -0.176562 1.258574 4.526260 -2.243776 8.746220 19.597085 -8.036812 -5.593749 27.752811 21.770677 0.321650 13.235639 10.248056 0.000000 0.000000 0.000000 -1.924634 -5.945186 -9.637732 9.244222 -15.548861 1.264790 23.600380 1.228179 4.905052 0.000000 0.000000 0.000000 -7.125000 0.000000 0.000000 -2.295770 24.629688 -1.130975 0.000000 0.000000 0.000000 -12.522142 13.525113 -0.621013 -22.131169 -33.124974 -6.657393 -28.942132 -7.722537 1.827369 0.000000 0.000000 0.000000 7.125000 0.000000 0.000000 -1.902466 32.063979 -0.602628
-0.478021 17.969238 -30.859078 -0.619618 35.828847 2.015249 0.000000 0.000000 0.000000 -15.247500 -13.904686 -6.811362 1.821229 8.483344 24.192153 0.421204 -2.614375 -11.637606 0.263472 -3.302194 -9.121185 0.000000 0.000000 0.000000 21.904186 -10.793873 -6.142069 -1.813415 -8.466060 24.138910 1.871155 -29.247868 -30.312573 -0.008506 -0.595883 1.637361 3.677698 6.587302 3.617585 3.664857 9.051083 -0.228691 1.238573 4.502209 -2.278718 8.715392 19.679086 -7.594627 -5.891316 27.879694 21.092852 0.171726 13.309606 9.978964 0.000000 0.000000 0.000000 -1.721756 -5.992774 -9.179406 9.366456 -15.742475 1.297766 23.996004 0.514997 4.683600 0.000000 0.000000 0.000000 -7.125000 0.000000 0.000000 -1.997374 24.855366 -0.973442 0.000000 0.000000 0.000000 -12.306264 13.418754 -1.465846 -21.515704 -32.425192 -6.324324 -29.838382 -6.476653 1.571903 0.000000 0.000000 0.000000 7.125000 0.000000 0.000000 -2.619424 31.784842 -0.847747
